<svg width="32" height="32" viewBox="0 0 32 32" fill="none" xmlns="http://www.w3.org/2000/svg">
<path d="M14.5 0.866025C15.4282 0.330127 16.5718 0.330127 17.5 0.866025L28.3564 7.13397C29.2846 7.66987 29.8564 8.66025 29.8564 9.73205V22.2679C29.8564 23.3397 29.2846 24.3301 28.3564 24.866L17.5 31.134C16.5718 31.6699 15.4282 31.6699 14.5 31.134L3.64359 24.866C2.71539 24.3301 2.14359 23.3397 2.14359 22.2679V9.73205C2.14359 8.66025 2.71539 7.66987 3.64359 7.13397L14.5 0.866025Z" fill="#590EDB"/>
<g filter="url(#filter0_d_221_10)">
<path d="M11.5651 21.6711L13.069 21.0657V11.6711L11.5651 11.0657V9.36646L16.1647 9.2688H21.7702V13.0676H19.9049L19.4069 11.6711H16.1647V15.1672H20.3053V17.3743H16.1647V21.0657L18.0104 21.6711V23.3704H11.5651V21.6711Z" fill="white"/>
</g>
<defs>
<filter id="filter0_d_221_10" x="3.56509" y="1.2688" width="26.2051" height="30.1016" filterUnits="userSpaceOnUse" color-interpolation-filters="sRGB">
<feFlood flood-opacity="0" result="BackgroundImageFix"/>
<feColorMatrix in="SourceAlpha" type="matrix" values="0 0 0 0 0 0 0 0 0 0 0 0 0 0 0 0 0 0 127 0" result="hardAlpha"/>
<feOffset/>
<feGaussianBlur stdDeviation="4"/>
<feComposite in2="hardAlpha" operator="out"/>
<feColorMatrix type="matrix" values="0 0 0 0 0.731987 0 0 0 0 0.39427 0 0 0 0 0.913835 0 0 0 1 0"/>
<feBlend mode="normal" in2="BackgroundImageFix" result="effect1_dropShadow_221_10"/>
<feBlend mode="normal" in="SourceGraphic" in2="effect1_dropShadow_221_10" result="shape"/>
</filter>
</defs>
</svg>
